<svg xmlns="http://www.w3.org/2000/svg" xmlns:svg="http://www.w3.org/2000/svg" id="svg8" width="512" height="512" version="1.1" viewBox="0 0 135.467 135.467"><metadata id="metadata5"/><g id="layer1" transform="translate(0,-161.53332)"><path style="opacity:1;fill:#acc7e1;fill-opacity:1;stroke:#989898;stroke-width:.99999994;stroke-linecap:round;stroke-linejoin:round;stroke-miterlimit:4;stroke-dasharray:none;stroke-opacity:1;paint-order:normal" id="rect4526" d="M 56.251953,1.3671875 52.337891,8.375 l 4.103515,6.630859 3.220703,-6.9453121 z" transform="matrix(0.26458333,0,0,0.26458333,0,161.53332)"/><circle style="opacity:1;fill:#acc7e1;fill-opacity:1;stroke:#989898;stroke-width:.26458332;stroke-linecap:round;stroke-linejoin:round;stroke-miterlimit:4;stroke-dasharray:none;stroke-opacity:1;paint-order:normal" id="path4528" cx="2.08" cy="163.608" r="1.846"/><path id="path830" d="M 39.900391,1.4941406 33.398438,14.5625 H 46.59375 Z" transform="matrix(0.26458333,0,0,0.26458333,0,161.53332)" style="opacity:1;fill:#acc7e1;fill-opacity:1;stroke:#989898;stroke-width:.99999994;stroke-linecap:round;stroke-linejoin:round;stroke-miterlimit:4;stroke-dasharray:none;stroke-opacity:1;paint-order:normal"/><path style="opacity:1;fill:#acc7e1;fill-opacity:1;stroke:#989898;stroke-width:.99999994;stroke-linecap:round;stroke-linejoin:round;stroke-miterlimit:4;stroke-dasharray:none;stroke-opacity:1;paint-order:normal" id="path832" d="M 17.5625,1.6054688 V 14.552734 H 30.419922 V 1.6054688 Z" transform="matrix(0.26458333,0,0,0.26458333,0,161.53332)"/><path id="path832-6" style="fill:#acc7e1;fill-opacity:1;stroke:#989898;stroke-width:.999999;stroke-linecap:round;stroke-linejoin:round;stroke-miterlimit:4;stroke-dasharray:none;stroke-opacity:1;paint-order:normal" d="M 153.74023 1.5253906 L 153.74023 5.5976562 L 149.74219 5.5976562 L 149.74219 10.035156 L 145.50977 10.035156 L 145.50977 14.472656 L 158.36719 14.472656 L 158.36719 1.5253906 L 153.74023 1.5253906 z" transform="matrix(0.26458333,0,0,0.26458333,0,161.53332)"/><path style="opacity:1;fill:#acc7e1;fill-opacity:1;stroke:#989898;stroke-width:.26458332;stroke-linecap:round;stroke-linejoin:round;stroke-miterlimit:4;stroke-dasharray:none;stroke-opacity:1;paint-order:normal" id="path834" d="m 20.268973,162.93943 0.0043,2.53464 -2.276134,-0.005 0.004,-2.52925 c -10e-7,-0.62625 0.507676,-1.13393 1.133928,-1.13393 0.626252,0 1.13393,0.50768 1.133929,1.13393 z"/><path style="opacity:1;fill:#acc7e1;fill-opacity:1;stroke:#989898;stroke-width:.99999994;stroke-linecap:round;stroke-linejoin:round;stroke-miterlimit:4;stroke-dasharray:none;stroke-opacity:1;paint-order:normal" id="path839" d="M 83.572266 1.8222656 A 1.6071428 1.6517857 0 0 0 81.964844 3.4726562 A 1.6071428 1.6517857 0 0 0 82.576172 4.7675781 L 90.712891 13.701172 A 1.6071428 1.6517857 0 0 0 92.03125 14.410156 A 1.6071428 1.6517857 0 0 0 93.638672 12.759766 A 1.6071428 1.6517857 0 0 0 93.410156 11.914062 C 93.403803 11.888859 93.401608 11.862428 93.382812 11.841797 L 93.314453 11.765625 A 1.6071428 1.6517857 0 0 0 93.066406 11.496094 L 84.845703 2.4707031 A 1.6071428 1.6517857 0 0 0 83.572266 1.8222656 z" transform="matrix(0.26458333,0,0,0.26458333,0,161.53332)"/><path style="opacity:1;fill:#acc7e1;fill-opacity:1;stroke:#989898;stroke-width:.99999994;stroke-linecap:round;stroke-linejoin:round;stroke-miterlimit:4;stroke-dasharray:none;stroke-opacity:1;paint-order:normal" id="rect862" d="M 4.75 17 L 4.75 20.394531 A 5.5624999 5.5624999 0 0 0 0.875 25.6875 A 5.5624999 5.5624999 0 0 0 6.4375 31.25 A 5.5624999 5.5624999 0 0 0 12 25.6875 A 5.5624999 5.5624999 0 0 0 11.994141 25.5 L 15 25.5 L 15 17 L 4.75 17 z" transform="matrix(0.26458333,0,0,0.26458333,0,161.53332)"/><rect style="opacity:1;fill:none;fill-opacity:1;stroke:#989898;stroke-width:.26458332;stroke-linecap:round;stroke-linejoin:round;stroke-miterlimit:4;stroke-dasharray:none;stroke-opacity:.529661;paint-order:normal" id="rect848" width="2.712" height="2.249" x="1.257" y="166.031"/><circle style="opacity:1;fill:none;fill-opacity:1;stroke:#989898;stroke-width:.26458332;stroke-linecap:round;stroke-linejoin:round;stroke-miterlimit:4;stroke-dasharray:none;stroke-opacity:.529661;paint-order:normal" id="path852" cx="1.703" cy="168.33" r="1.472"/><rect id="rect854" width="2.712" height="2.249" x="5.49" y="165.998" style="opacity:1;fill:none;fill-opacity:1;stroke:#989898;stroke-width:.26458332;stroke-linecap:round;stroke-linejoin:round;stroke-miterlimit:4;stroke-dasharray:none;stroke-opacity:.52542371;paint-order:normal"/><circle id="circle856" cx="5.937" cy="168.297" r="1.472" style="opacity:1;fill:none;fill-opacity:1;stroke:#989898;stroke-width:.26458332;stroke-linecap:round;stroke-linejoin:round;stroke-miterlimit:4;stroke-dasharray:none;stroke-opacity:.52542371;paint-order:normal"/><path style="opacity:1;fill:#acc7e1;fill-opacity:1;stroke:#989898;stroke-width:.99999994;stroke-linecap:round;stroke-linejoin:round;stroke-miterlimit:4;stroke-dasharray:none;stroke-opacity:1;paint-order:normal" id="rect872" d="M 36.875 16.875 L 36.875 20.269531 A 5.5624999 5.5624999 0 0 1 38.5625 20 A 5.5624999 5.5624999 0 0 1 44.119141 25.375 L 47.125 25.375 L 47.125 16.875 L 36.875 16.875 z" transform="matrix(0.26458333,0,0,0.26458333,0,161.53332)"/><rect style="opacity:1;fill:none;fill-opacity:1;stroke:#989898;stroke-width:.26458332;stroke-linecap:round;stroke-linejoin:round;stroke-miterlimit:4;stroke-dasharray:none;stroke-opacity:.64830506;paint-order:normal" id="rect858" width="2.712" height="2.249" x="9.757" y="165.998"/><circle style="opacity:1;fill:none;fill-opacity:1;stroke:#989898;stroke-width:.26458332;stroke-linecap:round;stroke-linejoin:round;stroke-miterlimit:4;stroke-dasharray:none;stroke-opacity:.64830506;paint-order:normal" id="circle860" cx="10.203" cy="168.297" r="1.472"/><path style="opacity:1;fill:#acc7e1;fill-opacity:1;stroke:#989898;stroke-width:.99999994;stroke-linecap:round;stroke-linejoin:round;stroke-miterlimit:4;stroke-dasharray:none;stroke-opacity:1;paint-order:normal" id="rect867" d="M 22.4375 20 A 5.5624999 5.5624999 0 0 0 20.75 20.269531 L 20.75 25.375 L 27.994141 25.375 A 5.5624999 5.5624999 0 0 0 22.4375 20 z" transform="matrix(0.26458333,0,0,0.26458333,0,161.53332)"/><path style="font-variation-settings:normal;opacity:1;vector-effect:none;fill:#acc7e1;fill-opacity:1;stroke:#989898;stroke-width:1;stroke-linecap:round;stroke-linejoin:round;stroke-miterlimit:4;stroke-dasharray:none;stroke-dashoffset:0;stroke-opacity:1;-inkscape-stroke:none;paint-order:normal;stop-color:#000;stop-opacity:1" id="path860" d="m 105.03125,11.9375 -8.486287,0.05537 -2.675069,-8.0538276 6.833006,-5.0329111 6.89809,4.9433173 z" transform="matrix(0.26458333,0,0,0.26458333,0.90123698,162.15344)"/><path style="font-variation-settings:normal;opacity:1;vector-effect:none;fill:#acc7e1;fill-opacity:1;stroke:#989898;stroke-width:1;stroke-linecap:round;stroke-linejoin:round;stroke-miterlimit:4;stroke-dasharray:none;stroke-dashoffset:0;stroke-opacity:1;-inkscape-stroke:none;paint-order:normal;stop-color:#000;stop-opacity:1" id="path1280" d="m 120.4375,11.53125 -4.33002,-2.5766931 -4.35618,2.5322261 1.11253,-4.9143399 -3.75443,-3.3604712 5.01761,-0.4605361 2.03582,-4.6091118 1.98852,4.6297133 5.01263,0.5118833 -3.78864,3.3218563 z" transform="matrix(0.26458333,0,0,0.26458333,1.0335287,162.35187)"/><ellipse style="font-variation-settings:normal;opacity:1;vector-effect:none;fill:#acc7e1;fill-opacity:1;stroke:#989898;stroke-width:.264583;stroke-linecap:round;stroke-linejoin:round;stroke-miterlimit:4;stroke-dasharray:none;stroke-dashoffset:0;stroke-opacity:1;-inkscape-stroke:none;paint-order:normal;stop-color:#000;stop-opacity:1" id="path1506" cx="35.942" cy="163.617" rx="1.869" ry="1.141"/></g></svg>