<svg xmlns="http://www.w3.org/2000/svg" xmlns:xlink="http://www.w3.org/1999/xlink" id="Layer_1" x="0" y="0" version="1.1" viewBox="0 0 254 264" style="enable-background:new 0 0 254 264" xml:space="preserve"><switch><g><g><path d="M123.22,88.78h-6.86v9.13h6.86c1.99,0,3.93-1.37,3.93-4.59C127.15,90.16,125.21,88.78,123.22,88.78z"/><path d="M33.96,189.47c0,1.24,0.66,2.39,1.74,3.02l89.24,50.68c1.45,0.82,3.23,0.83,4.69,0.01l89.46-50.4 c1.08-0.62,1.74-1.77,1.75-3.01l0.01-9.09H33.98L33.96,189.47z M164.93,190.73h11.11v2.58h-4.07v11.97h-2.95V193.3h-4.09V190.73z M152.56,190.73h2.7l5.57,9.06v-9.06h2.95v14.54h-2.7l-5.57-9.06v9.06h-2.95V190.73z M141.26,190.73h9.47v2.58h-6.52v3.45h5.57 v2.45h-5.57v3.49h6.56v2.58h-9.51V190.73z M135.69,190.73h2.95v14.54h-2.95V190.73z M123.34,190.73h6.5 c2.62,0,4.18,1.79,4.18,4.59c0,2.78-1.56,4.57-4.18,4.57h-3.55v5.38h-2.95V190.73z M117.77,190.73h2.95v14.54h-2.95V190.73z M104.67,195.65c0-3.3,2.01-5.24,5.71-5.24c2.87,0,5.4,1.5,5.4,5.09v0.21h-2.95v-0.21c0-1.72-1.29-2.39-2.64-2.39 c-1.75,0-2.58,0.89-2.58,2.33v5.11c0,1.43,0.83,2.33,2.58,2.33c1.35,0,2.64-0.62,2.64-2.39v-0.21h2.95v0.21 c0,3.59-2.54,5.09-5.4,5.09c-3.7,0-5.71-1.93-5.71-5.24V195.65z M93.78,190.73h9.47v2.58h-6.52v3.45h5.57v2.45h-5.57v3.49h6.56 v2.58h-9.51V190.73z M80.78,190.73h6.29c2.97,0,4.51,1.7,4.51,4.53c0,2.06-0.96,3.49-2.39,4.2l2.68,4.84v0.98h-2.87l-3.03-5.46 h-2.24v5.46h-2.95V190.73z"/><path d="M131.02,195.3c0-1.39-0.85-1.99-1.72-1.99h-3.01v4.01h3.01C130.17,197.31,131.02,196.71,131.02,195.3z"/><path d="M88.57,195.3c0-1.45-0.75-1.99-2.04-1.99h-2.8v4.01h2.8C87.83,197.31,88.57,196.77,88.57,195.3z"/><path d="M221,75.07c0-1.24-0.66-2.39-1.74-3.02l-89.87-52.07c-1.08-0.62-2.4-0.63-3.48-0.01l-90.04,51.8 c-1.08,0.62-1.74,1.77-1.75,3.01l-0.07,53.11h186.87L221,75.07z M116,43.82c0-1.54,0.56-2.11,2.09-2.11h18.82 c1.53,0,2.09,0.57,2.09,2.11v18.56c0,0.17-0.01,0.34-0.02,0.49c-0.03,0.34-0.04,0.66-0.35,1.03c-0.03,0.04-0.35,0.27-0.35,0.27 c-0.17,0.08-0.29,0.15-0.48,0.22l-9.27,3.91c-0.48,0.22-0.68,0.31-1.03,0.3v0c0,0,0,0,0,0c0,0,0,0,0,0v0 c-0.35,0.01-0.55-0.08-1.03-0.3l-9.27-3.91c-0.19-0.08-0.31-0.14-0.48-0.22c0,0-0.32-0.24-0.35-0.27 c-0.31-0.37-0.32-0.7-0.35-1.03c-0.02-0.15-0.02-0.31-0.02-0.49V43.82z M105.57,116.04H83.9V82.92h21.58v5.87H90.62v7.86h12.68 v5.58H90.62v7.95h14.95V116.04z M103.25,56.78l0.74,4.26l-3.83-2l-3.82,2.02l0.72-4.26l-3.1-3.01l4.27-0.63l1.9-3.88l1.92,3.87 l4.28,0.61L103.25,56.78z M124.45,103.79h-8.09v12.26h-6.72V82.92h14.81c5.96,0,9.51,4.07,9.51,10.46 C133.97,99.72,130.42,103.79,124.45,103.79z M144.52,116.04h-6.72V82.92h6.72V116.04z M152.9,53.15l1.9-3.88l1.92,3.87l4.28,0.61 l-3.09,3.02l0.74,4.26l-3.83-2L151,61.05l0.72-4.26l-3.1-3.01L152.9,53.15z M174.85,94.27h-6.72V93.8c0-3.93-2.93-5.44-6.01-5.44 c-3.98,0-5.87,2.04-5.87,5.3v11.64c0,3.27,1.89,5.3,5.87,5.3c3.08,0,6.01-1.42,6.01-5.44v-0.47h6.72v0.47 c0,8.19-5.77,11.6-12.3,11.6c-8.42,0-13.01-4.4-13.01-11.93v-10.7c0-7.52,4.59-11.93,13.01-11.93c6.53,0,12.3,3.41,12.3,11.59 V94.27z"/><path d="M159.56,160.17c0,1.24,0.92,1.95,2.59,1.95c1.77,0,3.05-0.6,4.15-1.81v-2.06h-3.83 C160.05,158.25,159.56,159.39,159.56,160.17z"/><path d="M102.82,160.17c0,1.24,0.92,1.95,2.59,1.95c1.77,0,3.05-0.6,4.15-1.81v-2.06h-3.83 C103.32,158.25,102.82,159.39,102.82,160.17z"/><path d="M85.68,160.17c1.81,0,3.05-1.03,3.97-1.95V153c-0.92-0.92-2.16-1.95-3.97-1.95c-1.42,0-2.94,1.03-2.94,2.98v3.16 C82.74,159.14,84.26,160.17,85.68,160.17z"/><path d="M69.68,153.68c0-1.6-1.17-2.63-3.3-2.63c-2.2,0-3.3,1.06-3.3,2.63v0.92h6.6V153.68z"/><path d="M16.16,177.96h222.65V130.6H16.16V177.96z M219.63,159.28l-5.15-1.31c-2.34-0.6-4.86-1.81-4.86-5.15 c0-3.65,2.8-5.96,7.56-5.96c1.42,0,2.65,0.23,3.72,0.62c2.52,0.93,4.03,2.9,4.13,5.76h-4.13h-0.48c-0.11-1.45-1.42-2.2-3.58-2.2 c-2.02,0-2.73,0.75-2.73,1.49c0,0.71,0.57,1.06,1.6,1.31l5.2,1.29l0.09,0.02c2.45,0.6,4.36,1.95,4.36,5.04 c0,2.81-1.7,4.79-4.47,5.64c-0.98,0.3-2.08,0.46-3.3,0.46c-4.9,0-8.2-2.62-8.34-6.81h4.58c0.21,1.67,1.85,2.63,4.33,2.63 c1.67,0,2.73-0.64,2.73-1.56C220.87,159.89,220.52,159.49,219.63,159.28z M194.76,147.29h2.73v-3.87h4.61v3.87h4.22v4.01h-4.22 v7.52c0,2.41,1.03,3.05,2.7,3.05h1.53v4.01h-2.02c-5.5,0-6.81-3.51-6.81-7.06v-7.52h-2.73V147.29z M175.91,147.29h2.66l1.35,1.84 c1.17-1.14,2.91-2.27,5.5-2.27c4.01,0,6.46,2.7,6.46,7.2v11.82h-4.61v-11.53c0-2.27-1.28-3.3-2.87-3.3 c-1.81,0-3.3,1.31-3.87,1.95v12.88h-4.61V147.29z M163.32,151.05c-2.09,0-2.98,0.92-2.98,2.13h-4.51c0-3.65,2.38-6.32,7.49-6.32 c5.11,0,7.59,2.66,7.59,6.39v12.63h-2.66l-1.35-1.81c-1.35,1.24-2.94,2.24-5.71,2.24c-3.34,0-6.25-1.88-6.25-5.53 c0-3.83,2.48-6.03,7.52-6.03h3.83v-1.17C166.3,151.97,165.38,151.05,163.32,151.05z M143.34,147.29H146l1.35,1.84 c0.89-1.03,2.38-2.27,4.83-2.27h0.96v4.43h-0.96c-1.95,0-3.19,0.46-4.22,1.7v12.88h-4.61V147.29z M118.82,149.45 c0-5.64,3.65-8.94,9.9-8.94c5.36,0,9.44,2.95,9.44,8.62h-5.04c0-2.52-1.92-4.01-4.68-4.01c-3.09,0-4.58,1.6-4.58,4.12v8.3 c0,2.7,1.6,4.26,4.51,4.26c1.92,0,3.8-0.96,4.75-2.45v-2.7h-4.4v-4.19h9.44v13.41h-2.7l-1.38-2.06c-1.53,1.7-3.69,2.59-6.17,2.59 c-5.71,0-9.08-3.34-9.08-8.84V149.45z M106.58,151.05c-2.09,0-2.98,0.92-2.98,2.13H99.1c0-3.65,2.38-6.32,7.49-6.32 s7.59,2.66,7.59,6.39v12.63h-2.66l-1.35-1.81c-1.35,1.24-2.94,2.24-5.71,2.24c-3.34,0-6.25-1.88-6.25-5.53 c0-3.83,2.48-6.03,7.52-6.03h3.83v-1.17C109.56,151.97,108.64,151.05,106.58,151.05z M78.13,153.68c0-4.65,2.98-6.81,6.6-6.81 c2.7,0,4.26,1.06,5.54,2.27l1.35-1.84h2.66v17.46c0,4.86-3.26,7.24-7.95,7.24c-4.72,0-7.74-2.27-7.74-6.07v-0.14h4.61v0.11 c0,0.82,0.75,1.92,3.09,1.92c2.41,0,3.37-1.28,3.37-3.05v-2.13c-0.78,0.67-2.34,1.74-4.93,1.74c-3.62,0-6.6-2.16-6.6-6.81V153.68 z M58.47,153.75c0-4.26,3.23-6.88,8.09-6.88c4.58,0,7.74,2.45,7.74,6.81v4.43H63.08v1.31c0,1.56,1.1,2.7,3.48,2.7 c1.77,0,2.77-0.71,3.09-1.88h4.61c-0.36,3.8-3.16,6.07-7.7,6.07c-4.86,0-8.09-2.45-8.09-6.81V153.75z M31.11,141.04h2.92h1.94 l6.53,10.96l6.53-10.96h4.72v24.84h-4.86v-15.9l-4.9,8.16h-3.12l-4.9-8.16v15.9H34h-2.89V141.04z"/><path d="M245.59,122.45h-12.16l0.07-49.7c0.01-4.25-2.27-8.21-5.95-10.34h0L133.63,7.99c-3.68-2.13-8.25-2.14-11.93-0.02 L27.61,62.1c-3.68,2.12-5.98,6.07-5.98,10.32l-0.07,50.03H9.41c-1.4,0-3.04,1.53-3.04,2.93v57.95c0,1.4,1.64,3,3.04,3h12.06 l-0.01,5.45c-0.01,4.25,2.27,8.21,5.95,10.34l93.92,54.42c1.84,1.07,3.91,1.6,5.98,1.6c2.06,0,4.11-0.53,5.95-1.58l94.09-54.13 c3.68-2.12,5.98-6.07,5.98-10.32l0.01-5.78h12.25c1.4,0,3.04-1.6,3.04-3v-57.95C248.63,123.98,246.99,122.45,245.59,122.45z M242.9,127.89l-0.07,52.78h-16.52h-0.19l-0.02,11.43c0,1.68-0.91,3.24-2.36,4.07l-94.09,54.13c-1.45,0.84-3.26,0.83-4.71-0.01 l-93.92-54.42c-1.45-0.84-2.35-2.4-2.35-4.08l0.02-11.13h-0.02H12.16l-0.07-52.8l16.68,0.03l0.08-55.46 c0-1.68,0.91-3.24,2.36-4.07l94.09-54.13c0.72-0.42,1.53-0.62,2.35-0.62c0.82,0,1.63,0.21,2.36,0.63l93.92,54.42h0 c1.45,0.84,2.35,2.4,2.35,4.08l-0.08,55.15l16.7-0.03V127.89z"/></g></g></switch></svg>